<svg width="55" height="45" fill="none" xmlns="http://www.w3.org/2000/svg"><rect x="5.305" y=".162" width="44.278" height="44.787" rx="11.416" fill="url(#qyw24763ha)"/><rect opacity=".3" x="5.305" y=".162" width="44.278" height="44.787" rx="11.416" fill="url(#8p6mvzahvb)"/><rect opacity=".5" x="5.08" y=".425" width="44.454" height="41.098" rx="11.416" fill="url(#uesbjulepc)"/><path d="M7.36 15.266a7.991 7.991 0 017.99-7.991h23.912a7.991 7.991 0 017.992 7.991V28.19c0 2.769-1.49 5.277-4.17 5.976-3.117.814-8.17 1.65-15.778 1.65-7.606 0-12.66-.836-15.777-1.65-2.68-.699-4.17-3.207-4.17-5.976V15.266z" fill="#000317"/><path opacity=".4" fill-rule="evenodd" clip-rule="evenodd" d="M15.35 7.275a7.991 7.991 0 00-7.99 7.991V28.19c0 2.769 1.49 5.277 4.17 5.976 1.654.432 3.855.87 6.694 1.186a9.235 9.235 0 01-.423-2.796v-9.318c0-5.692 4.614-10.307 10.306-10.307h18.8a7.995 7.995 0 00-7.645-5.656H15.351z" fill="url(#5qv1xqqmzd)"/><g filter="url(#4t05nedw2e)"><rect x="11.919" y="15.266" width="30.776" height="9.133" rx="4.566" fill="url(#rppdxpm2cf)"/></g><ellipse opacity=".6" cx="14.292" cy="19.877" rx="10.083" ry="10.099" fill="url(#3r2vujqhug)"/><path opacity=".298" d="M9.212 10.652L4.56 25.296l3.836 4.188 5.996-18.741-5.18-.09z" fill="url(#pwznuypsyh)"/><path opacity=".298" d="M45.25 10.652l-6.333 19.144 5.252.81 4.97-17.276-3.89-2.678z" fill="url(#3d4a6n2p0i)"/><path opacity=".234" fill-rule="evenodd" clip-rule="evenodd" d="M40.84 32.534a11.082 11.082 0 01-10.093-6.479l-.009-.01-.025-.044c-.471-.796-.946-2.415-1.327-3.718a12.6 12.6 0 00-.631-1.89c-.362-.585-1.272-.636-1.28-.637-.008 0-.917.052-1.279.637-.26.612-.47 1.244-.631 1.89l-.001.003c-.381 1.302-.855 2.92-1.326 3.715l-.026.044-.008.01a11.116 11.116 0 01-9.23 6.445 11.11 11.11 0 01-10.118-4.925l-.003.003a7.496 7.496 0 01-.858-1.544 10.842 10.842 0 01-.648-1.81 51.09 51.09 0 01-.46-1.674l-.036-.14a7.727 7.727 0 00-.644-1.971c-.388-.456-1.41-.505-1.831-.505-.132 0-.216.004-.226.005v-2.82c.488-.027.972-.1 1.447-.215a4.574 4.574 0 002.338-1.24A24.107 24.107 0 017.2 12.878l.014-.01c.23-.184.449-.356.693-.52l-.016-.01a10.93 10.93 0 016.185-1.856c1.49-.002 2.965.294 4.34.87a11.024 11.024 0 013.543 2.372c.795.742 1.513 1.553 2.206 2.335l.002.002.133.151c.11.125.221.25.332.373.334.464.862.749 1.433.773.21-.006.418-.029.623-.068a3.885 3.885 0 011.57 0c.206.04.415.062.624.068.367 0 .825-.092 1.433-.773l.34-.381.13-.148.002-.003c.693-.782 1.409-1.591 2.203-2.327a11.12 11.12 0 0114-1.388l.016.01c.232.155.469.329.722.53a24.312 24.312 0 013.227 2.788 4.331 4.331 0 002.317 1.239c.468.115.945.187 1.426.216v2.82l-.005-.001c-.021-.001-.1-.005-.214-.005-.409 0-1.403.05-1.788.505a7.13 7.13 0 00-.601 1.874l-.005.018a46.49 46.49 0 01-.507 1.894c-.159.62-.372 1.225-.638 1.808a7.371 7.371 0 01-.85 1.544v-.003a11.075 11.075 0 01-9.251 4.96zm0-20.552a9.574 9.574 0 00-8.818 5.818 9.49 9.49 0 002.052 10.444 9.586 9.586 0 0015.589-3.03A9.489 9.489 0 0047.61 14.77a9.567 9.567 0 00-6.769-2.79l-.002.002zM5.29 17.8a9.575 9.575 0 018.82-5.818 9.566 9.566 0 016.77 2.79 9.49 9.49 0 012.05 10.442 9.585 9.585 0 01-15.589 3.03A9.49 9.49 0 015.29 17.8z" fill="#111B2C"/><path fill-rule="evenodd" clip-rule="evenodd" d="M40.84 31.656a11.083 11.083 0 01-10.093-6.479l-.009-.01-.025-.044c-.471-.796-.946-2.415-1.327-3.718a12.608 12.608 0 00-.631-1.89c-.362-.585-1.272-.637-1.28-.637-.008 0-.917.052-1.279.637-.26.612-.47 1.244-.631 1.89l-.001.003c-.381 1.301-.855 2.92-1.326 3.715l-.026.043-.008.011a11.116 11.116 0 01-9.23 6.445 11.11 11.11 0 01-10.118-4.926l-.003.003a7.5 7.5 0 01-.858-1.544 10.836 10.836 0 01-.648-1.809 52.873 52.873 0 01-.46-1.674l-.036-.14a7.727 7.727 0 00-.644-1.971c-.388-.456-1.41-.505-1.831-.505-.132 0-.216.004-.226.005v-2.82c.488-.027.972-.1 1.447-.215a4.575 4.575 0 002.338-1.24A24.108 24.108 0 017.2 12l.014-.01c.23-.184.449-.356.693-.52l-.016-.01a10.931 10.931 0 016.185-1.856 11.16 11.16 0 014.34.87 11.024 11.024 0 013.543 2.371c.795.742 1.513 1.554 2.206 2.336l.002.002.133.151c.11.124.221.25.332.373.334.464.862.749 1.433.773.21-.006.418-.029.623-.068a3.881 3.881 0 011.57 0c.206.04.415.062.624.068.367 0 .825-.092 1.433-.773l.34-.382.13-.147.002-.003c.693-.783 1.409-1.591 2.203-2.327a11.12 11.12 0 0114-1.388l.016.01c.232.155.469.329.722.53a24.313 24.313 0 013.227 2.788 4.332 4.332 0 002.317 1.239 7.92 7.92 0 001.426.216v2.819h-.005c-.021-.001-.1-.005-.214-.005-.409 0-1.403.049-1.788.505a7.129 7.129 0 00-.601 1.874l-.005.017c-.145.577-.31 1.23-.507 1.894-.159.62-.372 1.226-.638 1.809a7.37 7.37 0 01-.85 1.544v-.003a11.075 11.075 0 01-9.251 4.96zm0-20.552a9.575 9.575 0 00-8.818 5.818 9.49 9.49 0 002.052 10.444 9.586 9.586 0 0015.589-3.03 9.489 9.489 0 00-2.052-10.444 9.566 9.566 0 00-6.769-2.79l-.002.002zM5.29 16.922a9.575 9.575 0 018.82-5.818 9.566 9.566 0 016.77 2.79 9.49 9.49 0 012.05 10.442 9.585 9.585 0 01-15.589 3.03 9.49 9.49 0 01-2.05-10.444z" fill="#111B2C"/><path fill-rule="evenodd" clip-rule="evenodd" d="M40.84 31.656a11.083 11.083 0 01-10.093-6.479l-.009-.01-.025-.044c-.471-.796-.946-2.415-1.327-3.718a12.608 12.608 0 00-.631-1.89c-.362-.585-1.272-.637-1.28-.637-.008 0-.917.052-1.279.637-.26.612-.47 1.244-.631 1.89-.382 1.302-.856 2.921-1.327 3.718l-.026.043-.008.011a11.116 11.116 0 01-9.23 6.445 11.11 11.11 0 01-10.118-4.926l-.003.003a7.5 7.5 0 01-.858-1.544 10.836 10.836 0 01-.648-1.809c-.19-.634-.351-1.261-.496-1.814a7.727 7.727 0 00-.644-1.971c-.388-.456-1.41-.505-1.831-.505-.132 0-.216.004-.226.005v-2.82c.488-.027.972-.1 1.447-.215a4.575 4.575 0 002.338-1.24A24.108 24.108 0 017.2 12l.014-.01c.23-.184.449-.356.693-.52l-.016-.01a10.931 10.931 0 016.185-1.856 11.16 11.16 0 014.34.87 11.024 11.024 0 013.543 2.371c.795.742 1.513 1.554 2.206 2.336l.002.002c.152.172.31.351.465.524.334.464.862.749 1.433.773.21-.006.418-.029.623-.068a3.881 3.881 0 011.57 0c.206.04.415.062.624.068.367 0 .825-.092 1.433-.773.158-.176.316-.356.47-.53l.002-.002c.693-.782 1.409-1.591 2.203-2.327a11.12 11.12 0 0114-1.388l.016.01c.232.155.469.329.722.53a24.313 24.313 0 013.227 2.788 4.332 4.332 0 002.317 1.239 7.92 7.92 0 001.426.216v2.819c-.003 0-.088-.005-.22-.005-.408 0-1.402.049-1.787.505a7.129 7.129 0 00-.601 1.874c-.147.581-.313 1.24-.512 1.912-.159.62-.372 1.225-.638 1.808a7.37 7.37 0 01-.85 1.544v-.003a11.075 11.075 0 01-9.251 4.96zm0-20.552a9.575 9.575 0 00-8.818 5.818 9.49 9.49 0 002.052 10.444 9.586 9.586 0 0015.589-3.03 9.489 9.489 0 00-2.052-10.444 9.566 9.566 0 00-6.769-2.79l-.002.002zm-26.73 0a9.574 9.574 0 00-8.82 5.818 9.49 9.49 0 002.05 10.444 9.585 9.585 0 0015.59-3.03 9.49 9.49 0 00-2.05-10.442 9.566 9.566 0 00-6.77-2.79z" fill="url(#di45xizkzj)"/><ellipse opacity=".6" cx="41.254" cy="20.359" rx="9.645" ry="9.66" fill="url(#60fku6x6mk)"/><path opacity=".157" fill-rule="evenodd" clip-rule="evenodd" d="M48.307 13.771a9.588 9.588 0 00-4.862-1.315c-5.326 0-9.644 4.325-9.644 9.66 0 2.546.983 4.862 2.59 6.588a9.658 9.658 0 01-4.782-8.345c0-5.335 4.318-9.66 9.645-9.66a9.611 9.611 0 017.053 3.072z" fill="url(#507ghv5gwl)"/><g filter="url(#d879quz5vm)"><rect x="17.229" y="3.236" width="6.138" height="2.195" rx=".878" fill="url(#65apqsrxln)"/></g><rect x="12.845" y="3.235" width="3.069" height="2.195" rx=".878" fill="#000317"/><defs><linearGradient id="qyw24763ha" x1="35.468" y1="7.894" x2="35.132" y2="39.064" gradientUnits="userSpaceOnUse"><stop stop-color="#3B629B"/><stop offset="1" stop-color="#223E6C"/></linearGradient><linearGradient id="8p6mvzahvb" x1="80.802" y1="2.747" x2="33.008" y2="36.43" gradientUnits="userSpaceOnUse"><stop stop-color="#77DAFE"/><stop offset="1" stop-color="#49B8F4" stop-opacity=".22"/></linearGradient><linearGradient id="uesbjulepc" x1="13.301" y1="15.113" x2="47.336" y2="16.083" gradientUnits="userSpaceOnUse"><stop stop-color="#77DAFE"/><stop offset="1" stop-color="#49B8F4" stop-opacity=".22"/></linearGradient><linearGradient id="5qv1xqqmzd" x1="21.231" y1="4.915" x2="30.401" y2="23.226" gradientUnits="userSpaceOnUse"><stop stop-color="#6EC4F1"/><stop offset="1" stop-color="#6EC4F1" stop-opacity="0"/></linearGradient><linearGradient id="3r2vujqhug" x1="24.121" y1="9.778" x2="4.462" y2="9.778" gradientUnits="userSpaceOnUse"><stop stop-color="#21C8F6"/><stop offset="1" stop-color="#637BFF"/></linearGradient><linearGradient id="pwznuypsyh" x1="14.265" y1="10.652" x2="4.688" y2="10.652" gradientUnits="userSpaceOnUse"><stop stop-color="#21C8F6"/><stop offset="1" stop-color="#637BFF"/></linearGradient><linearGradient id="3d4a6n2p0i" x1="49.007" y1="10.652" x2="39.05" y2="10.652" gradientUnits="userSpaceOnUse"><stop stop-color="#21C8F6"/><stop offset="1" stop-color="#637BFF"/></linearGradient><linearGradient id="di45xizkzj" x1="-3.578" y1="5.03" x2="-3.578" y2="19.534" gradientUnits="userSpaceOnUse"><stop stop-color="#1D77A9"/><stop offset="1" stop-color="#212138"/></linearGradient><linearGradient id="60fku6x6mk" x1="50.656" y1="10.7" x2="31.852" y2="10.7" gradientUnits="userSpaceOnUse"><stop stop-color="#21C8F6"/><stop offset="1" stop-color="#637BFF"/></linearGradient><linearGradient id="507ghv5gwl" x1="48.097" y1="10.7" x2="31.819" y2="10.7" gradientUnits="userSpaceOnUse"><stop stop-color="#21C8F6"/><stop offset="1" stop-color="#637BFF"/></linearGradient><radialGradient id="rppdxpm2cf" cx="0" cy="0" r="1" gradientUnits="userSpaceOnUse" gradientTransform="matrix(21.0505 0 0 6.24694 27.307 19.832)"><stop stop-color="#21C8F6"/><stop offset="1" stop-color="#4BDEFF"/></radialGradient><radialGradient id="65apqsrxln" cx="0" cy="0" r="1" gradientUnits="userSpaceOnUse" gradientTransform="matrix(4.19811 0 0 1.50167 20.298 4.334)"><stop stop-color="#21C8F6"/><stop offset="1" stop-color="#4BDEFF"/></radialGradient><filter id="4t05nedw2e" x="10.163" y="13.509" width="34.288" height="12.646" filterUnits="userSpaceOnUse" color-interpolation-filters="sRGB"><feFlood flood-opacity="0" result="BackgroundImageFix"/><feColorMatrix in="SourceAlpha" values="0 0 0 0 0 0 0 0 0 0 0 0 0 0 0 0 0 0 127 0" result="hardAlpha"/><feOffset/><feGaussianBlur stdDeviation=".878"/><feColorMatrix values="0 0 0 0 0.137255 0 0 0 0 0.788235 0 0 0 0 0.968627 0 0 0 1 0"/><feBlend in2="BackgroundImageFix" result="effect1_dropShadow_5102_61872"/><feBlend in="SourceGraphic" in2="effect1_dropShadow_5102_61872" result="shape"/></filter><filter id="d879quz5vm" x="15.473" y="1.48" width="9.65" height="5.708" filterUnits="userSpaceOnUse" color-interpolation-filters="sRGB"><feFlood flood-opacity="0" result="BackgroundImageFix"/><feColorMatrix in="SourceAlpha" values="0 0 0 0 0 0 0 0 0 0 0 0 0 0 0 0 0 0 127 0" result="hardAlpha"/><feOffset/><feGaussianBlur stdDeviation=".878"/><feColorMatrix values="0 0 0 0 0.137255 0 0 0 0 0.788235 0 0 0 0 0.968627 0 0 0 1 0"/><feBlend in2="BackgroundImageFix" result="effect1_dropShadow_5102_61872"/><feBlend in="SourceGraphic" in2="effect1_dropShadow_5102_61872" result="shape"/></filter></defs></svg>